<svg width="30" height="33" viewBox="0 0 31 34" fill="none" xmlns="http://www.w3.org/2000/svg">
<path d="M8.52707 6.38498L5.51651 1" stroke="#256DC1" stroke-width="0.5" stroke-linecap="round"/>
<path d="M22.2252 6.69269L25.2358 1.30771" stroke="#256DC1" stroke-width="0.5" stroke-linecap="round"/>
<path d="M0 38.0465V20.9535C0 20.4269 0.426891 20 0.953488 20H30.0465C30.5731 20 31 20.4269 31 20.9535V38.0465C31 38.5731 30.5731 39 30.0465 39H24.0233C23.4967 39 23.0698 38.5731 23.0698 38.0465V24.5384C23.0698 24.0118 22.6429 23.5849 22.1163 23.5849H8.16279C7.63619 23.5849 7.2093 24.0118 7.2093 24.5384V38.0465C7.2093 38.5731 6.78241 39 6.25581 39H0.953488C0.426891 39 0 38.5731 0 38.0465Z" fill="#256DC1"/>
<path fill-rule="evenodd" clip-rule="evenodd" d="M29.6183 19.0012H0.868306C0.316021 19.0012 -0.0925601 18.5612 0.0182007 18.0202C0.697372 14.7024 3.97957 4.38483 15.6738 4.38483C25.7498 4.38483 29.6675 12.8071 30.5718 17.9064C30.6753 18.4901 30.2111 19.0012 29.6183 19.0012ZM8.90001 12.0776C8.90001 12.9274 8.22607 13.6162 7.39472 13.6162C6.56338 13.6162 5.88944 12.9274 5.88944 12.0776C5.88944 11.2279 6.56338 10.5391 7.39472 10.5391C8.22607 10.5391 8.90001 11.2279 8.90001 12.0776ZM22.4475 13.6162C23.2789 13.6162 23.9528 12.9274 23.9528 12.0776C23.9528 11.2279 23.2789 10.5391 22.4475 10.5391C21.6162 10.5391 20.9422 11.2279 20.9422 12.0776C20.9422 12.9274 21.6162 13.6162 22.4475 13.6162Z" fill="#256DC1"/>
</svg>
